<mxfile host="app.diagrams.net" agent="Mozilla/5.0 (Macintosh; Intel Mac OS X 10_15_7) AppleWebKit/537.36 (KHTML, like Gecko) Chrome/138.0.0.0 Safari/537.36" version="28.0.7" pages="2">
  <diagram name="Page-1" id="duauANKaqMUS6tVCIHfg">
    <mxGraphModel dx="1287" dy="782" grid="0" gridSize="10" guides="1" tooltips="1" connect="1" arrows="1" fold="1" page="1" pageScale="1" pageWidth="850" pageHeight="1100" math="0" shadow="0">
      <root>
        <mxCell id="0" />
        <mxCell id="1" parent="0" />
        <mxCell id="DWVpbOMIAwc_VftdLsL9-61" value="" style="rounded=0;whiteSpace=wrap;html=1;strokeColor=none;" vertex="1" parent="1">
          <mxGeometry x="110" y="93" width="660" height="792" as="geometry" />
        </mxCell>
        <mxCell id="CwhwlBn4o9Tdt4u_8rzz-3" style="edgeStyle=orthogonalEdgeStyle;rounded=0;orthogonalLoop=1;jettySize=auto;html=1;entryX=0.5;entryY=0;entryDx=0;entryDy=0;" parent="1" source="CwhwlBn4o9Tdt4u_8rzz-1" target="CwhwlBn4o9Tdt4u_8rzz-2" edge="1">
          <mxGeometry relative="1" as="geometry" />
        </mxCell>
        <mxCell id="DWVpbOMIAwc_VftdLsL9-5" style="edgeStyle=orthogonalEdgeStyle;rounded=0;orthogonalLoop=1;jettySize=auto;html=1;" edge="1" parent="1" source="CwhwlBn4o9Tdt4u_8rzz-1" target="DWVpbOMIAwc_VftdLsL9-3">
          <mxGeometry relative="1" as="geometry" />
        </mxCell>
        <mxCell id="DWVpbOMIAwc_VftdLsL9-46" style="edgeStyle=orthogonalEdgeStyle;rounded=0;orthogonalLoop=1;jettySize=auto;html=1;entryX=0.5;entryY=0;entryDx=0;entryDy=0;" edge="1" parent="1" source="CwhwlBn4o9Tdt4u_8rzz-1" target="DWVpbOMIAwc_VftdLsL9-6">
          <mxGeometry relative="1" as="geometry">
            <Array as="points">
              <mxPoint x="420" y="200" />
              <mxPoint x="620" y="200" />
            </Array>
          </mxGeometry>
        </mxCell>
        <mxCell id="CwhwlBn4o9Tdt4u_8rzz-1" value="Authorization" style="rounded=0;whiteSpace=wrap;html=1;" parent="1" vertex="1">
          <mxGeometry x="360" y="120" width="120" height="60" as="geometry" />
        </mxCell>
        <mxCell id="DWVpbOMIAwc_VftdLsL9-10" style="edgeStyle=orthogonalEdgeStyle;rounded=0;orthogonalLoop=1;jettySize=auto;html=1;entryX=0.5;entryY=0;entryDx=0;entryDy=0;" edge="1" parent="1" source="CwhwlBn4o9Tdt4u_8rzz-2" target="CwhwlBn4o9Tdt4u_8rzz-4">
          <mxGeometry relative="1" as="geometry" />
        </mxCell>
        <mxCell id="CwhwlBn4o9Tdt4u_8rzz-2" value="Input text destination" style="rounded=0;whiteSpace=wrap;html=1;" parent="1" vertex="1">
          <mxGeometry x="360" y="230" width="120" height="60" as="geometry" />
        </mxCell>
        <mxCell id="CwhwlBn4o9Tdt4u_8rzz-7" style="edgeStyle=orthogonalEdgeStyle;rounded=0;orthogonalLoop=1;jettySize=auto;html=1;entryX=0.5;entryY=0;entryDx=0;entryDy=0;" parent="1" source="CwhwlBn4o9Tdt4u_8rzz-4" target="CwhwlBn4o9Tdt4u_8rzz-6" edge="1">
          <mxGeometry relative="1" as="geometry" />
        </mxCell>
        <mxCell id="CwhwlBn4o9Tdt4u_8rzz-4" value="Search for location(s)" style="rounded=0;whiteSpace=wrap;html=1;" parent="1" vertex="1">
          <mxGeometry x="360" y="320" width="120" height="60" as="geometry" />
        </mxCell>
        <mxCell id="DWVpbOMIAwc_VftdLsL9-11" style="edgeStyle=orthogonalEdgeStyle;rounded=0;orthogonalLoop=1;jettySize=auto;html=1;entryX=0;entryY=0.5;entryDx=0;entryDy=0;strokeColor=light-dark(#428DF0,#EDEDED);" edge="1" parent="1" source="CwhwlBn4o9Tdt4u_8rzz-6" target="CwhwlBn4o9Tdt4u_8rzz-12">
          <mxGeometry relative="1" as="geometry">
            <Array as="points">
              <mxPoint x="570" y="570" />
              <mxPoint x="570" y="570" />
            </Array>
          </mxGeometry>
        </mxCell>
        <mxCell id="DWVpbOMIAwc_VftdLsL9-15" style="edgeStyle=orthogonalEdgeStyle;rounded=0;orthogonalLoop=1;jettySize=auto;html=1;entryX=0;entryY=0.5;entryDx=0;entryDy=0;strokeColor=light-dark(#428DF0,#EDEDED);" edge="1" parent="1" source="CwhwlBn4o9Tdt4u_8rzz-6" target="DWVpbOMIAwc_VftdLsL9-14">
          <mxGeometry relative="1" as="geometry">
            <Array as="points">
              <mxPoint x="420" y="655" />
            </Array>
          </mxGeometry>
        </mxCell>
        <mxCell id="DWVpbOMIAwc_VftdLsL9-20" style="edgeStyle=orthogonalEdgeStyle;rounded=0;orthogonalLoop=1;jettySize=auto;html=1;entryX=0;entryY=0.5;entryDx=0;entryDy=0;strokeColor=light-dark(#428DF0,#EDEDED);" edge="1" parent="1" source="CwhwlBn4o9Tdt4u_8rzz-6" target="DWVpbOMIAwc_VftdLsL9-19">
          <mxGeometry relative="1" as="geometry">
            <Array as="points">
              <mxPoint x="420" y="725" />
            </Array>
          </mxGeometry>
        </mxCell>
        <mxCell id="DWVpbOMIAwc_VftdLsL9-27" style="edgeStyle=orthogonalEdgeStyle;rounded=0;orthogonalLoop=1;jettySize=auto;html=1;entryX=0;entryY=0.5;entryDx=0;entryDy=0;strokeColor=light-dark(#428DF0,#EDEDED);" edge="1" parent="1" source="CwhwlBn4o9Tdt4u_8rzz-6" target="CwhwlBn4o9Tdt4u_8rzz-14">
          <mxGeometry relative="1" as="geometry">
            <Array as="points">
              <mxPoint x="420" y="800" />
            </Array>
          </mxGeometry>
        </mxCell>
        <mxCell id="CwhwlBn4o9Tdt4u_8rzz-6" value="Provide itinerary" style="rounded=0;whiteSpace=wrap;html=1;" parent="1" vertex="1">
          <mxGeometry x="360" y="540" width="120" height="60" as="geometry" />
        </mxCell>
        <mxCell id="DWVpbOMIAwc_VftdLsL9-13" style="edgeStyle=orthogonalEdgeStyle;rounded=0;orthogonalLoop=1;jettySize=auto;html=1;entryX=0;entryY=0.75;entryDx=0;entryDy=0;strokeColor=light-dark(#428DF0,#EDEDED);" edge="1" parent="1" source="CwhwlBn4o9Tdt4u_8rzz-10" target="CwhwlBn4o9Tdt4u_8rzz-6">
          <mxGeometry relative="1" as="geometry" />
        </mxCell>
        <mxCell id="CwhwlBn4o9Tdt4u_8rzz-10" value="Search for events(s)" style="rounded=1;whiteSpace=wrap;html=1;fillColor=#dae8fc;strokeColor=#6c8ebf;" parent="1" vertex="1">
          <mxGeometry x="130" y="620" width="120" height="60" as="geometry" />
        </mxCell>
        <mxCell id="CwhwlBn4o9Tdt4u_8rzz-12" value="Transfer plan of trip into calendar" style="rounded=1;whiteSpace=wrap;html=1;fillColor=#dae8fc;strokeColor=#6c8ebf;" parent="1" vertex="1">
          <mxGeometry x="630" y="540" width="120" height="60" as="geometry" />
        </mxCell>
        <mxCell id="DWVpbOMIAwc_VftdLsL9-12" style="edgeStyle=orthogonalEdgeStyle;rounded=0;orthogonalLoop=1;jettySize=auto;html=1;entryX=0;entryY=0.5;entryDx=0;entryDy=0;strokeColor=light-dark(#428DF0,#EDEDED);" edge="1" parent="1" source="CwhwlBn4o9Tdt4u_8rzz-13" target="CwhwlBn4o9Tdt4u_8rzz-4">
          <mxGeometry relative="1" as="geometry">
            <Array as="points">
              <mxPoint x="300" y="300" />
              <mxPoint x="300" y="350" />
            </Array>
          </mxGeometry>
        </mxCell>
        <mxCell id="CwhwlBn4o9Tdt4u_8rzz-13" value="User&#39;s profile preferences (travel type)" style="rounded=1;whiteSpace=wrap;html=1;fillColor=#dae8fc;strokeColor=#6c8ebf;" parent="1" vertex="1">
          <mxGeometry x="130" y="270" width="120" height="60" as="geometry" />
        </mxCell>
        <mxCell id="CwhwlBn4o9Tdt4u_8rzz-14" value="Map-based route display" style="rounded=1;whiteSpace=wrap;html=1;fillColor=#dae8fc;strokeColor=#6c8ebf;" parent="1" vertex="1">
          <mxGeometry x="630" y="770" width="120" height="60" as="geometry" />
        </mxCell>
        <mxCell id="DWVpbOMIAwc_VftdLsL9-3" value="Review&amp;nbsp;conversation history" style="rounded=0;whiteSpace=wrap;html=1;" vertex="1" parent="1">
          <mxGeometry x="560" y="120" width="120" height="60" as="geometry" />
        </mxCell>
        <mxCell id="DWVpbOMIAwc_VftdLsL9-8" style="edgeStyle=orthogonalEdgeStyle;rounded=0;orthogonalLoop=1;jettySize=auto;html=1;" edge="1" parent="1" source="DWVpbOMIAwc_VftdLsL9-6" target="CwhwlBn4o9Tdt4u_8rzz-4">
          <mxGeometry relative="1" as="geometry">
            <Array as="points">
              <mxPoint x="620" y="350" />
            </Array>
          </mxGeometry>
        </mxCell>
        <mxCell id="DWVpbOMIAwc_VftdLsL9-6" value="Input image(s)" style="rounded=0;whiteSpace=wrap;html=1;dashed=1;" vertex="1" parent="1">
          <mxGeometry x="560" y="230" width="120" height="60" as="geometry" />
        </mxCell>
        <mxCell id="DWVpbOMIAwc_VftdLsL9-14" value="PDF itinerary export" style="rounded=1;whiteSpace=wrap;html=1;fillColor=#dae8fc;strokeColor=#6c8ebf;" vertex="1" parent="1">
          <mxGeometry x="630" y="620" width="120" height="60" as="geometry" />
        </mxCell>
        <mxCell id="DWVpbOMIAwc_VftdLsL9-18" style="edgeStyle=orthogonalEdgeStyle;rounded=0;orthogonalLoop=1;jettySize=auto;html=1;entryX=0;entryY=0.75;entryDx=0;entryDy=0;strokeColor=light-dark(#428DF0,#EDEDED);" edge="1" parent="1" source="DWVpbOMIAwc_VftdLsL9-17" target="CwhwlBn4o9Tdt4u_8rzz-6">
          <mxGeometry relative="1" as="geometry" />
        </mxCell>
        <mxCell id="DWVpbOMIAwc_VftdLsL9-17" value="Transport availability" style="rounded=1;whiteSpace=wrap;html=1;fillColor=#dae8fc;strokeColor=#6c8ebf;" vertex="1" parent="1">
          <mxGeometry x="130" y="710" width="120" height="60" as="geometry" />
        </mxCell>
        <mxCell id="DWVpbOMIAwc_VftdLsL9-19" value="Text-to-speech output" style="rounded=1;whiteSpace=wrap;html=1;fillColor=#dae8fc;strokeColor=#6c8ebf;" vertex="1" parent="1">
          <mxGeometry x="630" y="695" width="120" height="60" as="geometry" />
        </mxCell>
        <mxCell id="DWVpbOMIAwc_VftdLsL9-26" style="edgeStyle=orthogonalEdgeStyle;rounded=0;orthogonalLoop=1;jettySize=auto;html=1;entryX=0;entryY=0.5;entryDx=0;entryDy=0;" edge="1" parent="1" source="DWVpbOMIAwc_VftdLsL9-24" target="CwhwlBn4o9Tdt4u_8rzz-6">
          <mxGeometry relative="1" as="geometry" />
        </mxCell>
        <mxCell id="DWVpbOMIAwc_VftdLsL9-24" value="Input&amp;nbsp;follow-up prompt" style="rounded=0;whiteSpace=wrap;html=1;dashed=1;" vertex="1" parent="1">
          <mxGeometry x="130" y="540" width="120" height="60" as="geometry" />
        </mxCell>
        <mxCell id="DWVpbOMIAwc_VftdLsL9-54" style="edgeStyle=orthogonalEdgeStyle;rounded=0;orthogonalLoop=1;jettySize=auto;html=1;strokeColor=light-dark(#428DF0,#EDEDED);" edge="1" parent="1" source="DWVpbOMIAwc_VftdLsL9-53">
          <mxGeometry relative="1" as="geometry">
            <mxPoint x="360" y="350" as="targetPoint" />
            <Array as="points">
              <mxPoint x="300" y="390" />
              <mxPoint x="300" y="350" />
            </Array>
          </mxGeometry>
        </mxCell>
        <mxCell id="DWVpbOMIAwc_VftdLsL9-53" value="Weather forecast data&amp;nbsp;" style="rounded=1;whiteSpace=wrap;html=1;fillColor=#dae8fc;strokeColor=#6c8ebf;" vertex="1" parent="1">
          <mxGeometry x="130" y="360" width="120" height="60" as="geometry" />
        </mxCell>
        <mxCell id="DWVpbOMIAwc_VftdLsL9-58" style="edgeStyle=orthogonalEdgeStyle;rounded=0;orthogonalLoop=1;jettySize=auto;html=1;entryX=0;entryY=0.75;entryDx=0;entryDy=0;strokeColor=light-dark(#428DF0,#EDEDED);" edge="1" parent="1" source="DWVpbOMIAwc_VftdLsL9-57" target="CwhwlBn4o9Tdt4u_8rzz-6">
          <mxGeometry relative="1" as="geometry" />
        </mxCell>
        <mxCell id="DWVpbOMIAwc_VftdLsL9-57" value="Bomb shelters locations" style="rounded=1;whiteSpace=wrap;html=1;fillColor=#dae8fc;strokeColor=#6c8ebf;" vertex="1" parent="1">
          <mxGeometry x="130" y="800" width="120" height="60" as="geometry" />
        </mxCell>
        <mxCell id="DWVpbOMIAwc_VftdLsL9-60" style="edgeStyle=orthogonalEdgeStyle;rounded=0;orthogonalLoop=1;jettySize=auto;html=1;entryX=0;entryY=0.5;entryDx=0;entryDy=0;strokeColor=light-dark(#428DF0,#EDEDED);" edge="1" parent="1" source="DWVpbOMIAwc_VftdLsL9-59" target="CwhwlBn4o9Tdt4u_8rzz-4">
          <mxGeometry relative="1" as="geometry">
            <Array as="points">
              <mxPoint x="300" y="480" />
              <mxPoint x="300" y="350" />
            </Array>
          </mxGeometry>
        </mxCell>
        <mxCell id="DWVpbOMIAwc_VftdLsL9-59" value="Places ratings, reviews and working hours" style="rounded=1;whiteSpace=wrap;html=1;fillColor=#dae8fc;strokeColor=#6c8ebf;" vertex="1" parent="1">
          <mxGeometry x="130" y="450" width="120" height="60" as="geometry" />
        </mxCell>
      </root>
    </mxGraphModel>
  </diagram>
  <diagram id="4FbH8cKobrFap1oojMAu" name="Page-2">
    <mxGraphModel grid="1" page="1" gridSize="10" guides="1" tooltips="1" connect="1" arrows="1" fold="1" pageScale="1" pageWidth="850" pageHeight="1100" math="0" shadow="0">
      <root>
        <mxCell id="0" />
        <mxCell id="1" parent="0" />
        <mxCell id="HKWzx8Oq11LN8t4Th-cn-1" value="Authorization" style="rounded=1;whiteSpace=wrap;html=1;" vertex="1" parent="1">
          <mxGeometry x="320" y="40" width="120" height="60" as="geometry" />
        </mxCell>
        <mxCell id="HKWzx8Oq11LN8t4Th-cn-2" value="Input text destination" style="whiteSpace=wrap;html=1;rounded=1;" vertex="1" parent="1">
          <mxGeometry x="320" y="150" width="120" height="60" as="geometry" />
        </mxCell>
        <mxCell id="HKWzx8Oq11LN8t4Th-cn-6" value="Recommendation" style="whiteSpace=wrap;html=1;rounded=1;" vertex="1" parent="1">
          <mxGeometry x="320" y="350" width="120" height="60" as="geometry" />
        </mxCell>
        <mxCell id="HKWzx8Oq11LN8t4Th-cn-8" value="Input images" style="whiteSpace=wrap;html=1;rounded=1;fillColor=#dae8fc;strokeColor=#6c8ebf;" vertex="1" parent="1">
          <mxGeometry x="510" y="150" width="120" height="60" as="geometry" />
        </mxCell>
        <mxCell id="HKWzx8Oq11LN8t4Th-cn-10" value="Weather Prediction" style="whiteSpace=wrap;html=1;rounded=1;fillColor=#dae8fc;strokeColor=#6c8ebf;" vertex="1" parent="1">
          <mxGeometry x="510" y="350" width="120" height="60" as="geometry" />
        </mxCell>
        <mxCell id="HKWzx8Oq11LN8t4Th-cn-12" value="Search for locations" style="whiteSpace=wrap;html=1;rounded=1;" vertex="1" parent="1">
          <mxGeometry x="320" y="250" width="120" height="60" as="geometry" />
        </mxCell>
        <mxCell id="HKWzx8Oq11LN8t4Th-cn-14" value="Search Events" style="rounded=1;whiteSpace=wrap;html=1;fillColor=#dae8fc;strokeColor=#6c8ebf;" vertex="1" parent="1">
          <mxGeometry x="510" y="250" width="120" height="60" as="geometry" />
        </mxCell>
      </root>
    </mxGraphModel>
  </diagram>
</mxfile>
